<svg id="Layer_1" data-name="Layer 1" xmlns="http://www.w3.org/2000/svg" viewBox="0 0 141.28 341.4"><defs><style>.cls-1{fill:#010101;}</style></defs><title>DNA</title><path class="cls-1" d="M103.95,259.39l.08-.06c64.16-50.59,65.54-106.3,0-158l-.09-.06c19-15,48.72-44,48.72-78.93a12.73,12.73,0,0,0-25.45,0C127.21,47,102,71.55,82,86c-8.93-6.37-21-16.53-30.45-28.52H79.29a10.12,10.12,0,0,0,0-20.25H39.69a42.74,42.74,0,0,1-2.86-14.85,12.73,12.73,0,1,0-25.45,0c0,34.9,29.73,63.94,48.72,78.93l-.08.06c-64.16,50.59-65.54,106.3,0,158l.09.06c-19,15-48.72,44-48.72,78.93a12.73,12.73,0,1,0,25.45,0c0-24.6,25.17-49.19,45.25-63.62,16.89,12.06,45.12,37.63,45.12,63.62a12.73,12.73,0,1,0,25.45,0C152.66,303.41,122.94,274.37,103.95,259.39ZM82.1,244,82,244l-.08-.06c-38.23-27.48-49.84-51.88-43.33-75.14H79.29a10.12,10.12,0,1,0,0-20.25H48.83a118.77,118.77,0,0,1,12.71-14.68,172,172,0,0,1,20.41-17.18l.07-.05.08.06c41.28,29.67,51.53,55.75,41.44,80.69a10.07,10.07,0,0,0-3.76-.74h-43a10.12,10.12,0,0,0,0,20.25h34.78a130.21,130.21,0,0,1-9,9.88A172,172,0,0,1,82.1,244Z" transform="translate(-11.38 -9.64)"/></svg>